<svg width="1200" height="760" viewBox="0 0 1200 760" fill="none" xmlns="http://www.w3.org/2000/svg">
  <defs>
    <linearGradient id="bg" x1="0" y1="0" x2="1200" y2="760" gradientUnits="userSpaceOnUse">
      <stop offset="0" stop-color="#12051F"/>
      <stop offset="0.52" stop-color="#240537"/>
      <stop offset="1" stop-color="#07111F"/>
    </linearGradient>
    <linearGradient id="orange" x1="242" y1="172" x2="912" y2="577" gradientUnits="userSpaceOnUse">
      <stop stop-color="#FFB25A"/>
      <stop offset="0.48" stop-color="#FF7A18"/>
      <stop offset="1" stop-color="#FF4FD8"/>
    </linearGradient>
    <linearGradient id="line" x1="163" y1="386" x2="1016" y2="386" gradientUnits="userSpaceOnUse">
      <stop stop-color="#FF8A00"/>
      <stop offset="0.54" stop-color="#FF5CCB"/>
      <stop offset="1" stop-color="#44D7FF"/>
    </linearGradient>
    <filter id="glow" x="-40%" y="-40%" width="180%" height="180%" color-interpolation-filters="sRGB">
      <feGaussianBlur stdDeviation="16" result="blur"/>
      <feColorMatrix in="blur" type="matrix" values="1 0 0 0 1 0 1 0 0 0.38 0 0 1 0 0.05 0 0 0 0.75 0"/>
      <feBlend in="SourceGraphic" mode="screen"/>
    </filter>
    <pattern id="grid" width="58" height="58" patternUnits="userSpaceOnUse">
      <path d="M58 0H0V58" stroke="white" stroke-opacity="0.045" stroke-width="1"/>
    </pattern>
  </defs>

  <rect width="1200" height="760" rx="44" fill="url(#bg)"/>
  <rect width="1200" height="760" rx="44" fill="url(#grid)"/>
  <circle cx="170" cy="136" r="172" fill="#FF7A18" opacity="0.13"/>
  <circle cx="1033" cy="614" r="230" fill="#7C3AED" opacity="0.2"/>
  <circle cx="928" cy="138" r="170" fill="#05D9FF" opacity="0.09"/>

  <g opacity="0.9">
    <path d="M184 386H990" stroke="url(#line)" stroke-width="8" stroke-linecap="round" filter="url(#glow)"/>
    <path d="M980 386L940 362M980 386L940 410" stroke="#44D7FF" stroke-width="8" stroke-linecap="round" stroke-linejoin="round"/>
  </g>

  <g filter="url(#glow)">
    <rect x="82" y="236" width="228" height="296" rx="30" fill="#170C2D" stroke="#FF8A00" stroke-opacity="0.45" stroke-width="2"/>
    <rect x="114" y="272" width="58" height="58" rx="18" fill="#FF8A00" fill-opacity="0.16"/>
    <path d="M132 313V289H156C162 289 166 293 166 299C166 305 162 309 156 309H143" stroke="#FFB25A" stroke-width="8" stroke-linecap="round" stroke-linejoin="round"/>
    <text x="114" y="374" fill="white" font-family="Inter, Arial, sans-serif" font-size="28" font-weight="800">Profile promise</text>
    <text x="114" y="415" fill="#D9CFE8" font-family="Inter, Arial, sans-serif" font-size="18">LinkedIn creates</text>
    <text x="114" y="443" fill="#D9CFE8" font-family="Inter, Arial, sans-serif" font-size="18">warm curiosity.</text>
    <rect x="114" y="474" width="116" height="16" rx="8" fill="#FF8A00" fill-opacity="0.38"/>
    <rect x="114" y="504" width="152" height="12" rx="6" fill="white" fill-opacity="0.12"/>
  </g>

  <g>
    <rect x="359" y="176" width="242" height="416" rx="32" fill="#190B32" stroke="#FF5CCB" stroke-opacity="0.36" stroke-width="2"/>
    <rect x="393" y="214" width="174" height="92" rx="22" fill="url(#orange)" opacity="0.22"/>
    <rect x="394" y="348" width="172" height="18" rx="9" fill="white" fill-opacity="0.14"/>
    <rect x="394" y="382" width="134" height="14" rx="7" fill="white" fill-opacity="0.11"/>
    <rect x="394" y="424" width="146" height="46" rx="14" fill="#FF8A00" fill-opacity="0.17" stroke="#FF8A00" stroke-opacity="0.35"/>
    <text x="393" y="330" fill="white" font-family="Inter, Arial, sans-serif" font-size="28" font-weight="800">Website trust</text>
    <text x="393" y="514" fill="#D9CFE8" font-family="Inter, Arial, sans-serif" font-size="18">The page repeats</text>
    <text x="393" y="542" fill="#D9CFE8" font-family="Inter, Arial, sans-serif" font-size="18">the same offer.</text>
  </g>

  <g>
    <rect x="650" y="236" width="226" height="296" rx="30" fill="#120D2A" stroke="#44D7FF" stroke-opacity="0.3" stroke-width="2"/>
    <rect x="684" y="274" width="158" height="18" rx="9" fill="#44D7FF" fill-opacity="0.22"/>
    <rect x="684" y="314" width="122" height="14" rx="7" fill="white" fill-opacity="0.13"/>
    <rect x="684" y="344" width="136" height="14" rx="7" fill="white" fill-opacity="0.1"/>
    <rect x="684" y="398" width="114" height="46" rx="14" fill="#44D7FF" fill-opacity="0.16" stroke="#44D7FF" stroke-opacity="0.38"/>
    <text x="684" y="489" fill="white" font-family="Inter, Arial, sans-serif" font-size="28" font-weight="800">CTA path</text>
    <text x="684" y="527" fill="#D9CFE8" font-family="Inter, Arial, sans-serif" font-size="18">One clear next</text>
    <text x="684" y="555" fill="#D9CFE8" font-family="Inter, Arial, sans-serif" font-size="18">step is visible.</text>
  </g>

  <g filter="url(#glow)">
    <rect x="925" y="176" width="214" height="416" rx="32" fill="#120A25" stroke="#FF8A00" stroke-opacity="0.46" stroke-width="2"/>
    <circle cx="1032" cy="275" r="58" fill="#FF8A00" fill-opacity="0.16"/>
    <path d="M1008 276L1025 293L1061 252" stroke="#FFB25A" stroke-width="10" stroke-linecap="round" stroke-linejoin="round"/>
    <text x="963" y="382" fill="white" font-family="Inter, Arial, sans-serif" font-size="28" font-weight="800">Qualified</text>
    <text x="963" y="417" fill="white" font-family="Inter, Arial, sans-serif" font-size="28" font-weight="800">enquiry</text>
    <text x="963" y="463" fill="#D9CFE8" font-family="Inter, Arial, sans-serif" font-size="18">The visitor has</text>
    <text x="963" y="491" fill="#D9CFE8" font-family="Inter, Arial, sans-serif" font-size="18">enough context</text>
    <text x="963" y="519" fill="#D9CFE8" font-family="Inter, Arial, sans-serif" font-size="18">to apply.</text>
  </g>

  <rect x="92" y="52" width="378" height="54" rx="27" fill="white" fill-opacity="0.07" stroke="white" stroke-opacity="0.11"/>
  <circle cx="126" cy="79" r="9" fill="#FF8A00"/>
  <text x="150" y="86" fill="#F9F4FF" font-family="Inter, Arial, sans-serif" font-size="18" font-weight="700">LinkedIn to website decision path</text>

  <rect x="820" y="646" width="286" height="46" rx="23" fill="#FF8A00" fill-opacity="0.13" stroke="#FF8A00" stroke-opacity="0.25"/>
  <text x="852" y="676" fill="#FFD6A1" font-family="Inter, Arial, sans-serif" font-size="16" font-weight="700">Promise -> trust -> action</text>
</svg>
